<svg xmlns="http://www.w3.org/2000/svg" width="414.96" height="414.96" viewBox="0 0 414.96 414.96"><defs><style>.a{fill:none;stroke:#000;stroke-miterlimit:10;stroke-width:18px;}.b{fill:#fff;}</style></defs><circle class="a" cx="207.48" cy="207.48" r="198.48"/><path d="M171.16,253.1q0-54.16,0-108.33c0-9.53.9-10.41,10.57-10.42,35,0,70.1-.09,105.15.07a10.56,10.56,0,0,1,6.66,2.86q29.49,29.1,58.55,58.61a14.22,14.22,0,0,1,3.77,9c.23,52.84.13,105.68.21,158.52,0,6.07-2.61,8.51-8.61,8.5q-83.64-.12-167.28,0c-7,0-9.14-3.08-9.11-9.66C171.25,325.86,171.16,289.48,171.16,253.1Zm168.55-51.82c-14.32,0-28.08,0-41.84,0-9.47,0-10.34-.92-10.36-10.64,0-13.2,0-26.41,0-39.87H187.68V355.49h152Zm-35.88-16.56h19c-5.93-6.29-12.48-13.26-19-20.21Z" transform="translate(-57.38 -48.52)"/><path class="b" d="M339.71,201.28V355.49h-152V150.77h99.83c0,13.46,0,26.67,0,39.87,0,9.72.89,10.62,10.36,10.64C311.63,201.3,325.39,201.28,339.71,201.28Z" transform="translate(-57.38 -48.52)"/><path class="b" d="M303.83,184.72V164.51c6.54,7,13.09,13.92,19,20.21Z" transform="translate(-57.38 -48.52)"/></svg>