<svg xmlns="http://www.w3.org/2000/svg" width="414.96" height="414.96" viewBox="0 0 414.96 414.96"><defs><style>.a{fill:none;stroke:#000;stroke-miterlimit:10;stroke-width:18px;}</style></defs><circle class="a" cx="207.48" cy="207.48" r="198.48"/><path d="M213.83,255.74c0-23.88-.21-47.76.2-71.63.07-4,1.71-9.86,4.55-11.49s8.75,0,12.1,2.1c37.41,23.66,74.61,47.68,111.82,71.67,9.73,6.27,9.73,12.41,0,18.67-37.21,24-74.41,48-111.82,71.68-3.36,2.12-9.31,3.71-12.11,2.12s-4.49-7.46-4.56-11.49C213.62,303.5,213.83,279.62,213.83,255.74Zm17.6,60.5,94.14-60.53-94.14-60.45Z" transform="translate(-57.38 -48.52)"/></svg>