<?xml version="1.0" encoding="utf-8"?>
<!-- Generator: Adobe Illustrator 26.0.1, SVG Export Plug-In . SVG Version: 6.00 Build 0)  -->
<svg version="1.1" id="Lager_1" xmlns="http://www.w3.org/2000/svg" xmlns:xlink="http://www.w3.org/1999/xlink" x="0px" y="0px"
	 viewBox="0 0 415 415" style="enable-background:new 0 0 415 415;" xml:space="preserve">
<style type="text/css">
	.st0{fill:none;stroke:#000000;stroke-width:18;stroke-miterlimit:10;}
</style>
<circle class="st0" cx="207.5" cy="207.5" r="198.5"/>
<path d="M113.8,204.6c0-36.1,0-72.2,0-108.3c0-9.5,0.9-10.4,10.6-10.4c35,0,70.1-0.1,105.1,0.1c2.5,0.1,4.8,1.2,6.7,2.9
	c19.7,19.4,39.2,38.9,58.5,58.6c2.3,2.5,3.6,5.6,3.8,9c0.2,52.8,0.1,105.7,0.2,158.5c0,6.1-2.6,8.5-8.6,8.5
	c-55.8-0.1-111.5-0.1-167.3,0c-7,0-9.1-3.1-9.1-9.7C113.9,277.3,113.8,241,113.8,204.6z M282.3,152.8c-14.3,0-28.1,0-41.8,0
	c-9.5,0-10.3-0.9-10.4-10.6c0-13.2,0-26.4,0-39.9h-99.8V307h152L282.3,152.8z M246.5,136.2h19c-5.9-6.3-12.5-13.3-19-20.2V136.2z"/>
</svg>
