<svg xmlns="http://www.w3.org/2000/svg" width="407.64" height="408.1" viewBox="0 0 407.64 408.1"><defs><style>.a{fill:#fff;}</style></defs><path d="M242.44,445.85c-19.5-4.76-39.95-7.17-58.32-14.68-70.36-28.79-114.34-81-126.32-156.36C44.6,191.77,74.25,124.33,141.89,75,185.3,43.29,235.07,32,288.3,40.48c72.41,11.57,124,51.68,155.79,117.51,9.05,18.76,14.1,38.79,16.71,59.44.36,2.85,1,5.65,1.58,8.48v31.87c-1,5.7-1.95,11.41-3,17.1-14,75-56.37,127.5-126.74,156.29-18.36,7.51-38.81,9.92-58.31,14.68ZM445.19,242.52c.89-102.66-82.8-186.87-186.34-187.5C156.33,54.4,72.94,137.1,71.57,240.77,70.21,343.15,153.69,427.52,257.5,428.66,360,429.79,444.3,346.2,445.19,242.52Z" transform="translate(-54.73 -37.75)"/><path class="a" d="M274.31,445.85c19.5-4.76,39.95-7.17,58.31-14.68C403,402.38,445.36,349.88,459.36,274.88c1.07-5.69,2-11.4,3-17.1V445.85Z" transform="translate(-54.73 -37.75)"/><path d="M266.89,358h-15.3V193h15.3Z" transform="translate(-54.73 -37.75)"/><path d="M251.56,132.11h15.32v34.4H251.56Z" transform="translate(-54.73 -37.75)"/></svg>